<mxfile host="app.diagrams.net" modified="2023-02-13T06:22:52.976Z" agent="5.0 (Windows NT 10.0; Win64; x64) AppleWebKit/537.36 (KHTML, like Gecko) Chrome/109.0.0.0 Safari/537.36" etag="xTK-QIZmIBBppZzZzFdA" version="20.8.13" type="github">
  <diagram name="페이지-1" id="E3Nfmj0UPKqn4euKRgJr">
    <mxGraphModel dx="1020" dy="513" grid="1" gridSize="10" guides="1" tooltips="1" connect="1" arrows="1" fold="1" page="1" pageScale="1" pageWidth="1169" pageHeight="827" math="0" shadow="0">
      <root>
        <mxCell id="0" />
        <mxCell id="1" parent="0" />
        <mxCell id="SxxazjnEcDOOSWcFCbGN-1" value="" style="rounded=0;whiteSpace=wrap;html=1;" vertex="1" parent="1">
          <mxGeometry x="40" y="30" width="950" height="490" as="geometry" />
        </mxCell>
        <mxCell id="SxxazjnEcDOOSWcFCbGN-2" value="" style="pointerEvents=1;shadow=0;dashed=0;html=1;strokeColor=none;fillColor=#4495D1;labelPosition=center;verticalLabelPosition=bottom;verticalAlign=top;align=center;outlineConnect=0;shape=mxgraph.veeam.2d.esx_esxi;" vertex="1" parent="1">
          <mxGeometry x="50" y="20" width="33.2" height="50.8" as="geometry" />
        </mxCell>
        <mxCell id="SxxazjnEcDOOSWcFCbGN-3" value="CLT-master02" style="text;html=1;strokeColor=none;fillColor=none;align=center;verticalAlign=middle;whiteSpace=wrap;rounded=0;" vertex="1" parent="1">
          <mxGeometry x="83.2" y="30.4" width="96.8" height="29.6" as="geometry" />
        </mxCell>
      </root>
    </mxGraphModel>
  </diagram>
</mxfile>
